G04 #@! TF.GenerationSoftware,KiCad,Pcbnew,5.1.4*
G04 #@! TF.CreationDate,2019-11-17T16:06:47-07:00*
G04 #@! TF.ProjectId,Prototype-PCB,50726f74-6f74-4797-9065-2d5043422e6b,rev?*
G04 #@! TF.SameCoordinates,Original*
G04 #@! TF.FileFunction,Soldermask,Bot*
G04 #@! TF.FilePolarity,Negative*
%FSLAX46Y46*%
G04 Gerber Fmt 4.6, Leading zero omitted, Abs format (unit mm)*
G04 Created by KiCad (PCBNEW 5.1.4) date 2019-11-17 16:06:47*
%MOMM*%
%LPD*%
G04 APERTURE LIST*
%ADD10C,0.100000*%
G04 APERTURE END LIST*
D10*
G36*
X95461836Y-104761179D02*
G01*
X95629338Y-104794497D01*
X95866009Y-104892530D01*
X96079008Y-105034851D01*
X96260149Y-105215992D01*
X96402470Y-105428991D01*
X96500503Y-105665662D01*
X96550480Y-105916915D01*
X96550480Y-106173085D01*
X96500503Y-106424338D01*
X96402470Y-106661009D01*
X96260149Y-106874008D01*
X96079008Y-107055149D01*
X95866009Y-107197470D01*
X95629338Y-107295503D01*
X95461836Y-107328821D01*
X95378086Y-107345480D01*
X95121914Y-107345480D01*
X95038164Y-107328821D01*
X94870662Y-107295503D01*
X94633991Y-107197470D01*
X94420992Y-107055149D01*
X94239851Y-106874008D01*
X94097530Y-106661009D01*
X93999497Y-106424338D01*
X93949520Y-106173085D01*
X93949520Y-105916915D01*
X93999497Y-105665662D01*
X94097530Y-105428991D01*
X94239851Y-105215992D01*
X94420992Y-105034851D01*
X94633991Y-104892530D01*
X94870662Y-104794497D01*
X95038164Y-104761179D01*
X95121914Y-104744520D01*
X95378086Y-104744520D01*
X95461836Y-104761179D01*
X95461836Y-104761179D01*
G37*
G36*
X95433301Y-99040503D02*
G01*
X95629338Y-99079497D01*
X95866009Y-99177530D01*
X96079008Y-99319851D01*
X96260149Y-99500992D01*
X96402470Y-99713991D01*
X96500503Y-99950662D01*
X96550480Y-100201915D01*
X96550480Y-100458085D01*
X96500503Y-100709338D01*
X96402470Y-100946009D01*
X96260149Y-101159008D01*
X96079008Y-101340149D01*
X95866009Y-101482470D01*
X95629338Y-101580503D01*
X95461836Y-101613821D01*
X95378086Y-101630480D01*
X95121914Y-101630480D01*
X95038164Y-101613821D01*
X94870662Y-101580503D01*
X94633991Y-101482470D01*
X94420992Y-101340149D01*
X94239851Y-101159008D01*
X94097530Y-100946009D01*
X93999497Y-100709338D01*
X93949520Y-100458085D01*
X93949520Y-100201915D01*
X93999497Y-99950662D01*
X94097530Y-99713991D01*
X94239851Y-99500992D01*
X94420992Y-99319851D01*
X94633991Y-99177530D01*
X94870662Y-99079497D01*
X95066699Y-99040503D01*
X95121914Y-99029520D01*
X95378086Y-99029520D01*
X95433301Y-99040503D01*
X95433301Y-99040503D01*
G37*
G36*
X108796836Y-96506179D02*
G01*
X108964338Y-96539497D01*
X109201009Y-96637530D01*
X109414008Y-96779851D01*
X109595149Y-96960992D01*
X109737470Y-97173991D01*
X109835503Y-97410662D01*
X109885480Y-97661915D01*
X109885480Y-97918085D01*
X109835503Y-98169338D01*
X109737470Y-98406009D01*
X109595149Y-98619008D01*
X109414008Y-98800149D01*
X109201009Y-98942470D01*
X108964338Y-99040503D01*
X108796836Y-99073821D01*
X108713086Y-99090480D01*
X108456914Y-99090480D01*
X108373164Y-99073821D01*
X108205662Y-99040503D01*
X107968991Y-98942470D01*
X107755992Y-98800149D01*
X107574851Y-98619008D01*
X107432530Y-98406009D01*
X107334497Y-98169338D01*
X107284520Y-97918085D01*
X107284520Y-97661915D01*
X107334497Y-97410662D01*
X107432530Y-97173991D01*
X107574851Y-96960992D01*
X107755992Y-96779851D01*
X107968991Y-96637530D01*
X108205662Y-96539497D01*
X108373164Y-96506179D01*
X108456914Y-96489520D01*
X108713086Y-96489520D01*
X108796836Y-96506179D01*
X108796836Y-96506179D01*
G37*
M02*
