G04 #@! TF.GenerationSoftware,KiCad,Pcbnew,5.1.4*
G04 #@! TF.CreationDate,2019-11-17T16:06:47-07:00*
G04 #@! TF.ProjectId,Prototype-PCB,50726f74-6f74-4797-9065-2d5043422e6b,rev?*
G04 #@! TF.SameCoordinates,Original*
G04 #@! TF.FileFunction,Soldermask,Top*
G04 #@! TF.FilePolarity,Negative*
%FSLAX46Y46*%
G04 Gerber Fmt 4.6, Leading zero omitted, Abs format (unit mm)*
G04 Created by KiCad (PCBNEW 5.1.4) date 2019-11-17 16:06:47*
%MOMM*%
%LPD*%
G04 APERTURE LIST*
%ADD10C,0.100000*%
G04 APERTURE END LIST*
D10*
G36*
X95461836Y-104761179D02*
G01*
X95629338Y-104794497D01*
X95866009Y-104892530D01*
X96079008Y-105034851D01*
X96260149Y-105215992D01*
X96402470Y-105428991D01*
X96500503Y-105665662D01*
X96550480Y-105916915D01*
X96550480Y-106173085D01*
X96500503Y-106424338D01*
X96402470Y-106661009D01*
X96260149Y-106874008D01*
X96079008Y-107055149D01*
X95866009Y-107197470D01*
X95629338Y-107295503D01*
X95461836Y-107328821D01*
X95378086Y-107345480D01*
X95121914Y-107345480D01*
X95038164Y-107328821D01*
X94870662Y-107295503D01*
X94633991Y-107197470D01*
X94420992Y-107055149D01*
X94239851Y-106874008D01*
X94097530Y-106661009D01*
X93999497Y-106424338D01*
X93949520Y-106173085D01*
X93949520Y-105916915D01*
X93999497Y-105665662D01*
X94097530Y-105428991D01*
X94239851Y-105215992D01*
X94420992Y-105034851D01*
X94633991Y-104892530D01*
X94870662Y-104794497D01*
X95038164Y-104761179D01*
X95121914Y-104744520D01*
X95378086Y-104744520D01*
X95461836Y-104761179D01*
X95461836Y-104761179D01*
G37*
G36*
X163569061Y-103218956D02*
G01*
X163613112Y-103232319D01*
X163653704Y-103254016D01*
X163689284Y-103283216D01*
X163718484Y-103318796D01*
X163740181Y-103359388D01*
X163753544Y-103403439D01*
X163758300Y-103451728D01*
X163758300Y-104828272D01*
X163753544Y-104876561D01*
X163740181Y-104920612D01*
X163718484Y-104961204D01*
X163689284Y-104996784D01*
X163653704Y-105025984D01*
X163613112Y-105047681D01*
X163569061Y-105061044D01*
X163520772Y-105065800D01*
X162469228Y-105065800D01*
X162420939Y-105061044D01*
X162376888Y-105047681D01*
X162336296Y-105025984D01*
X162300716Y-104996784D01*
X162271516Y-104961204D01*
X162249819Y-104920612D01*
X162236456Y-104876561D01*
X162231700Y-104828272D01*
X162231700Y-103451728D01*
X162236456Y-103403439D01*
X162249819Y-103359388D01*
X162271516Y-103318796D01*
X162300716Y-103283216D01*
X162336296Y-103254016D01*
X162376888Y-103232319D01*
X162420939Y-103218956D01*
X162469228Y-103214200D01*
X163520772Y-103214200D01*
X163569061Y-103218956D01*
X163569061Y-103218956D01*
G37*
G36*
X160594061Y-103218956D02*
G01*
X160638112Y-103232319D01*
X160678704Y-103254016D01*
X160714284Y-103283216D01*
X160743484Y-103318796D01*
X160765181Y-103359388D01*
X160778544Y-103403439D01*
X160783300Y-103451728D01*
X160783300Y-104828272D01*
X160778544Y-104876561D01*
X160765181Y-104920612D01*
X160743484Y-104961204D01*
X160714284Y-104996784D01*
X160678704Y-105025984D01*
X160638112Y-105047681D01*
X160594061Y-105061044D01*
X160545772Y-105065800D01*
X159494228Y-105065800D01*
X159445939Y-105061044D01*
X159401888Y-105047681D01*
X159361296Y-105025984D01*
X159325716Y-104996784D01*
X159296516Y-104961204D01*
X159274819Y-104920612D01*
X159261456Y-104876561D01*
X159256700Y-104828272D01*
X159256700Y-103451728D01*
X159261456Y-103403439D01*
X159274819Y-103359388D01*
X159296516Y-103318796D01*
X159325716Y-103283216D01*
X159361296Y-103254016D01*
X159401888Y-103232319D01*
X159445939Y-103218956D01*
X159494228Y-103214200D01*
X160545772Y-103214200D01*
X160594061Y-103218956D01*
X160594061Y-103218956D01*
G37*
G36*
X147694061Y-103218956D02*
G01*
X147738112Y-103232319D01*
X147778704Y-103254016D01*
X147814284Y-103283216D01*
X147843484Y-103318796D01*
X147865181Y-103359388D01*
X147878544Y-103403439D01*
X147883300Y-103451728D01*
X147883300Y-104828272D01*
X147878544Y-104876561D01*
X147865181Y-104920612D01*
X147843484Y-104961204D01*
X147814284Y-104996784D01*
X147778704Y-105025984D01*
X147738112Y-105047681D01*
X147694061Y-105061044D01*
X147645772Y-105065800D01*
X146594228Y-105065800D01*
X146545939Y-105061044D01*
X146501888Y-105047681D01*
X146461296Y-105025984D01*
X146425716Y-104996784D01*
X146396516Y-104961204D01*
X146374819Y-104920612D01*
X146361456Y-104876561D01*
X146356700Y-104828272D01*
X146356700Y-103451728D01*
X146361456Y-103403439D01*
X146374819Y-103359388D01*
X146396516Y-103318796D01*
X146425716Y-103283216D01*
X146461296Y-103254016D01*
X146501888Y-103232319D01*
X146545939Y-103218956D01*
X146594228Y-103214200D01*
X147645772Y-103214200D01*
X147694061Y-103218956D01*
X147694061Y-103218956D01*
G37*
G36*
X144719061Y-103218956D02*
G01*
X144763112Y-103232319D01*
X144803704Y-103254016D01*
X144839284Y-103283216D01*
X144868484Y-103318796D01*
X144890181Y-103359388D01*
X144903544Y-103403439D01*
X144908300Y-103451728D01*
X144908300Y-104828272D01*
X144903544Y-104876561D01*
X144890181Y-104920612D01*
X144868484Y-104961204D01*
X144839284Y-104996784D01*
X144803704Y-105025984D01*
X144763112Y-105047681D01*
X144719061Y-105061044D01*
X144670772Y-105065800D01*
X143619228Y-105065800D01*
X143570939Y-105061044D01*
X143526888Y-105047681D01*
X143486296Y-105025984D01*
X143450716Y-104996784D01*
X143421516Y-104961204D01*
X143399819Y-104920612D01*
X143386456Y-104876561D01*
X143381700Y-104828272D01*
X143381700Y-103451728D01*
X143386456Y-103403439D01*
X143399819Y-103359388D01*
X143421516Y-103318796D01*
X143450716Y-103283216D01*
X143486296Y-103254016D01*
X143526888Y-103232319D01*
X143570939Y-103218956D01*
X143619228Y-103214200D01*
X144670772Y-103214200D01*
X144719061Y-103218956D01*
X144719061Y-103218956D01*
G37*
G36*
X130114061Y-103218956D02*
G01*
X130158112Y-103232319D01*
X130198704Y-103254016D01*
X130234284Y-103283216D01*
X130263484Y-103318796D01*
X130285181Y-103359388D01*
X130298544Y-103403439D01*
X130303300Y-103451728D01*
X130303300Y-104828272D01*
X130298544Y-104876561D01*
X130285181Y-104920612D01*
X130263484Y-104961204D01*
X130234284Y-104996784D01*
X130198704Y-105025984D01*
X130158112Y-105047681D01*
X130114061Y-105061044D01*
X130065772Y-105065800D01*
X129014228Y-105065800D01*
X128965939Y-105061044D01*
X128921888Y-105047681D01*
X128881296Y-105025984D01*
X128845716Y-104996784D01*
X128816516Y-104961204D01*
X128794819Y-104920612D01*
X128781456Y-104876561D01*
X128776700Y-104828272D01*
X128776700Y-103451728D01*
X128781456Y-103403439D01*
X128794819Y-103359388D01*
X128816516Y-103318796D01*
X128845716Y-103283216D01*
X128881296Y-103254016D01*
X128921888Y-103232319D01*
X128965939Y-103218956D01*
X129014228Y-103214200D01*
X130065772Y-103214200D01*
X130114061Y-103218956D01*
X130114061Y-103218956D01*
G37*
G36*
X133089061Y-103218956D02*
G01*
X133133112Y-103232319D01*
X133173704Y-103254016D01*
X133209284Y-103283216D01*
X133238484Y-103318796D01*
X133260181Y-103359388D01*
X133273544Y-103403439D01*
X133278300Y-103451728D01*
X133278300Y-104828272D01*
X133273544Y-104876561D01*
X133260181Y-104920612D01*
X133238484Y-104961204D01*
X133209284Y-104996784D01*
X133173704Y-105025984D01*
X133133112Y-105047681D01*
X133089061Y-105061044D01*
X133040772Y-105065800D01*
X131989228Y-105065800D01*
X131940939Y-105061044D01*
X131896888Y-105047681D01*
X131856296Y-105025984D01*
X131820716Y-104996784D01*
X131791516Y-104961204D01*
X131769819Y-104920612D01*
X131756456Y-104876561D01*
X131751700Y-104828272D01*
X131751700Y-103451728D01*
X131756456Y-103403439D01*
X131769819Y-103359388D01*
X131791516Y-103318796D01*
X131820716Y-103283216D01*
X131856296Y-103254016D01*
X131896888Y-103232319D01*
X131940939Y-103218956D01*
X131989228Y-103214200D01*
X133040772Y-103214200D01*
X133089061Y-103218956D01*
X133089061Y-103218956D01*
G37*
G36*
X117849061Y-103218956D02*
G01*
X117893112Y-103232319D01*
X117933704Y-103254016D01*
X117969284Y-103283216D01*
X117998484Y-103318796D01*
X118020181Y-103359388D01*
X118033544Y-103403439D01*
X118038300Y-103451728D01*
X118038300Y-104828272D01*
X118033544Y-104876561D01*
X118020181Y-104920612D01*
X117998484Y-104961204D01*
X117969284Y-104996784D01*
X117933704Y-105025984D01*
X117893112Y-105047681D01*
X117849061Y-105061044D01*
X117800772Y-105065800D01*
X116749228Y-105065800D01*
X116700939Y-105061044D01*
X116656888Y-105047681D01*
X116616296Y-105025984D01*
X116580716Y-104996784D01*
X116551516Y-104961204D01*
X116529819Y-104920612D01*
X116516456Y-104876561D01*
X116511700Y-104828272D01*
X116511700Y-103451728D01*
X116516456Y-103403439D01*
X116529819Y-103359388D01*
X116551516Y-103318796D01*
X116580716Y-103283216D01*
X116616296Y-103254016D01*
X116656888Y-103232319D01*
X116700939Y-103218956D01*
X116749228Y-103214200D01*
X117800772Y-103214200D01*
X117849061Y-103218956D01*
X117849061Y-103218956D01*
G37*
G36*
X114874061Y-103218956D02*
G01*
X114918112Y-103232319D01*
X114958704Y-103254016D01*
X114994284Y-103283216D01*
X115023484Y-103318796D01*
X115045181Y-103359388D01*
X115058544Y-103403439D01*
X115063300Y-103451728D01*
X115063300Y-104828272D01*
X115058544Y-104876561D01*
X115045181Y-104920612D01*
X115023484Y-104961204D01*
X114994284Y-104996784D01*
X114958704Y-105025984D01*
X114918112Y-105047681D01*
X114874061Y-105061044D01*
X114825772Y-105065800D01*
X113774228Y-105065800D01*
X113725939Y-105061044D01*
X113681888Y-105047681D01*
X113641296Y-105025984D01*
X113605716Y-104996784D01*
X113576516Y-104961204D01*
X113554819Y-104920612D01*
X113541456Y-104876561D01*
X113536700Y-104828272D01*
X113536700Y-103451728D01*
X113541456Y-103403439D01*
X113554819Y-103359388D01*
X113576516Y-103318796D01*
X113605716Y-103283216D01*
X113641296Y-103254016D01*
X113681888Y-103232319D01*
X113725939Y-103218956D01*
X113774228Y-103214200D01*
X114825772Y-103214200D01*
X114874061Y-103218956D01*
X114874061Y-103218956D01*
G37*
G36*
X95433301Y-99040503D02*
G01*
X95629338Y-99079497D01*
X95866009Y-99177530D01*
X96079008Y-99319851D01*
X96260149Y-99500992D01*
X96402470Y-99713991D01*
X96500503Y-99950662D01*
X96550480Y-100201915D01*
X96550480Y-100458085D01*
X96500503Y-100709338D01*
X96402470Y-100946009D01*
X96260149Y-101159008D01*
X96079008Y-101340149D01*
X95866009Y-101482470D01*
X95629338Y-101580503D01*
X95461836Y-101613821D01*
X95378086Y-101630480D01*
X95121914Y-101630480D01*
X95038164Y-101613821D01*
X94870662Y-101580503D01*
X94633991Y-101482470D01*
X94420992Y-101340149D01*
X94239851Y-101159008D01*
X94097530Y-100946009D01*
X93999497Y-100709338D01*
X93949520Y-100458085D01*
X93949520Y-100201915D01*
X93999497Y-99950662D01*
X94097530Y-99713991D01*
X94239851Y-99500992D01*
X94420992Y-99319851D01*
X94633991Y-99177530D01*
X94870662Y-99079497D01*
X95066699Y-99040503D01*
X95121914Y-99029520D01*
X95378086Y-99029520D01*
X95433301Y-99040503D01*
X95433301Y-99040503D01*
G37*
G36*
X105784061Y-99408956D02*
G01*
X105828112Y-99422319D01*
X105868704Y-99444016D01*
X105904284Y-99473216D01*
X105933484Y-99508796D01*
X105955181Y-99549388D01*
X105968544Y-99593439D01*
X105973300Y-99641728D01*
X105973300Y-101018272D01*
X105968544Y-101066561D01*
X105955181Y-101110612D01*
X105933484Y-101151204D01*
X105904284Y-101186784D01*
X105868704Y-101215984D01*
X105828112Y-101237681D01*
X105784061Y-101251044D01*
X105735772Y-101255800D01*
X104684228Y-101255800D01*
X104635939Y-101251044D01*
X104591888Y-101237681D01*
X104551296Y-101215984D01*
X104515716Y-101186784D01*
X104486516Y-101151204D01*
X104464819Y-101110612D01*
X104451456Y-101066561D01*
X104446700Y-101018272D01*
X104446700Y-99641728D01*
X104451456Y-99593439D01*
X104464819Y-99549388D01*
X104486516Y-99508796D01*
X104515716Y-99473216D01*
X104551296Y-99444016D01*
X104591888Y-99422319D01*
X104635939Y-99408956D01*
X104684228Y-99404200D01*
X105735772Y-99404200D01*
X105784061Y-99408956D01*
X105784061Y-99408956D01*
G37*
G36*
X102809061Y-99408956D02*
G01*
X102853112Y-99422319D01*
X102893704Y-99444016D01*
X102929284Y-99473216D01*
X102958484Y-99508796D01*
X102980181Y-99549388D01*
X102993544Y-99593439D01*
X102998300Y-99641728D01*
X102998300Y-101018272D01*
X102993544Y-101066561D01*
X102980181Y-101110612D01*
X102958484Y-101151204D01*
X102929284Y-101186784D01*
X102893704Y-101215984D01*
X102853112Y-101237681D01*
X102809061Y-101251044D01*
X102760772Y-101255800D01*
X101709228Y-101255800D01*
X101660939Y-101251044D01*
X101616888Y-101237681D01*
X101576296Y-101215984D01*
X101540716Y-101186784D01*
X101511516Y-101151204D01*
X101489819Y-101110612D01*
X101476456Y-101066561D01*
X101471700Y-101018272D01*
X101471700Y-99641728D01*
X101476456Y-99593439D01*
X101489819Y-99549388D01*
X101511516Y-99508796D01*
X101540716Y-99473216D01*
X101576296Y-99444016D01*
X101616888Y-99422319D01*
X101660939Y-99408956D01*
X101709228Y-99404200D01*
X102760772Y-99404200D01*
X102809061Y-99408956D01*
X102809061Y-99408956D01*
G37*
G36*
X119620800Y-101080800D02*
G01*
X118519200Y-101080800D01*
X118519200Y-99579200D01*
X119620800Y-99579200D01*
X119620800Y-101080800D01*
X119620800Y-101080800D01*
G37*
G36*
X112620800Y-101080800D02*
G01*
X111519200Y-101080800D01*
X111519200Y-99579200D01*
X112620800Y-99579200D01*
X112620800Y-101080800D01*
X112620800Y-101080800D01*
G37*
G36*
X127860800Y-101080800D02*
G01*
X126759200Y-101080800D01*
X126759200Y-99579200D01*
X127860800Y-99579200D01*
X127860800Y-101080800D01*
X127860800Y-101080800D01*
G37*
G36*
X134860800Y-101080800D02*
G01*
X133759200Y-101080800D01*
X133759200Y-99579200D01*
X134860800Y-99579200D01*
X134860800Y-101080800D01*
X134860800Y-101080800D01*
G37*
G36*
X149790800Y-101080800D02*
G01*
X148689200Y-101080800D01*
X148689200Y-99579200D01*
X149790800Y-99579200D01*
X149790800Y-101080800D01*
X149790800Y-101080800D01*
G37*
G36*
X142790800Y-101080800D02*
G01*
X141689200Y-101080800D01*
X141689200Y-99579200D01*
X142790800Y-99579200D01*
X142790800Y-101080800D01*
X142790800Y-101080800D01*
G37*
G36*
X158650800Y-101080800D02*
G01*
X157549200Y-101080800D01*
X157549200Y-99579200D01*
X158650800Y-99579200D01*
X158650800Y-101080800D01*
X158650800Y-101080800D01*
G37*
G36*
X165650800Y-101080800D02*
G01*
X164549200Y-101080800D01*
X164549200Y-99579200D01*
X165650800Y-99579200D01*
X165650800Y-101080800D01*
X165650800Y-101080800D01*
G37*
G36*
X108796836Y-96506179D02*
G01*
X108964338Y-96539497D01*
X109201009Y-96637530D01*
X109414008Y-96779851D01*
X109595149Y-96960992D01*
X109737470Y-97173991D01*
X109835503Y-97410662D01*
X109885480Y-97661915D01*
X109885480Y-97918085D01*
X109835503Y-98169338D01*
X109737470Y-98406009D01*
X109595149Y-98619008D01*
X109414008Y-98800149D01*
X109201009Y-98942470D01*
X108964338Y-99040503D01*
X108796836Y-99073821D01*
X108713086Y-99090480D01*
X108456914Y-99090480D01*
X108373164Y-99073821D01*
X108205662Y-99040503D01*
X107968991Y-98942470D01*
X107755992Y-98800149D01*
X107574851Y-98619008D01*
X107432530Y-98406009D01*
X107334497Y-98169338D01*
X107284520Y-97918085D01*
X107284520Y-97661915D01*
X107334497Y-97410662D01*
X107432530Y-97173991D01*
X107574851Y-96960992D01*
X107755992Y-96779851D01*
X107968991Y-96637530D01*
X108205662Y-96539497D01*
X108373164Y-96506179D01*
X108456914Y-96489520D01*
X108713086Y-96489520D01*
X108796836Y-96506179D01*
X108796836Y-96506179D01*
G37*
M02*
