G04 #@! TF.GenerationSoftware,KiCad,Pcbnew,5.1.2*
G04 #@! TF.CreationDate,2019-08-19T17:44:21-07:00*
G04 #@! TF.ProjectId,Prototype-PCB,50726f74-6f74-4797-9065-2d5043422e6b,rev?*
G04 #@! TF.SameCoordinates,Original*
G04 #@! TF.FileFunction,Legend,Top*
G04 #@! TF.FilePolarity,Positive*
%FSLAX46Y46*%
G04 Gerber Fmt 4.6, Leading zero omitted, Abs format (unit mm)*
G04 Created by KiCad (PCBNEW 5.1.2) date 2019-08-19 17:44:21*
%MOMM*%
%LPD*%
G04 APERTURE LIST*
%ADD10C,0.152400*%
%ADD11C,0.150000*%
G04 APERTURE END LIST*
D10*
X130369801Y-99822000D02*
G75*
G03X130369801Y-99822000I-76200J0D01*
G01*
X119176749Y-103390700D02*
X125851453Y-103390700D01*
X125851453Y-96253300D02*
X119176749Y-96253300D01*
X143123453Y-96253300D02*
X136448749Y-96253300D01*
X136448749Y-103390700D02*
X143123453Y-103390700D01*
X147641801Y-99822000D02*
G75*
G03X147641801Y-99822000I-76200J0D01*
G01*
X160436352Y-96253300D02*
X153761648Y-96253300D01*
X153761648Y-103390700D02*
X160436352Y-103390700D01*
X164954700Y-99822000D02*
G75*
G03X164954700Y-99822000I-76200J0D01*
G01*
X177162250Y-96253300D02*
X170487550Y-96253300D01*
X170487550Y-103390700D02*
X177162250Y-103390700D01*
X181686200Y-99822000D02*
G75*
G03X181686200Y-99822000I-76200J0D01*
G01*
X109423251Y-96253300D02*
X102748547Y-96253300D01*
X102748547Y-103390700D02*
X109423251Y-103390700D01*
X113941599Y-99822000D02*
G75*
G03X113941599Y-99822000I-76200J0D01*
G01*
D11*
X94869095Y-102370000D02*
X94773857Y-102322380D01*
X94631000Y-102322380D01*
X94488142Y-102370000D01*
X94392904Y-102465238D01*
X94345285Y-102560476D01*
X94297666Y-102750952D01*
X94297666Y-102893809D01*
X94345285Y-103084285D01*
X94392904Y-103179523D01*
X94488142Y-103274761D01*
X94631000Y-103322380D01*
X94726238Y-103322380D01*
X94869095Y-103274761D01*
X94916714Y-103227142D01*
X94916714Y-102893809D01*
X94726238Y-102893809D01*
X95345285Y-103322380D02*
X95345285Y-102322380D01*
X95916714Y-103322380D01*
X95916714Y-102322380D01*
X96392904Y-103322380D02*
X96392904Y-102322380D01*
X96631000Y-102322380D01*
X96773857Y-102370000D01*
X96869095Y-102465238D01*
X96916714Y-102560476D01*
X96964333Y-102750952D01*
X96964333Y-102893809D01*
X96916714Y-103084285D01*
X96869095Y-103179523D01*
X96773857Y-103274761D01*
X96631000Y-103322380D01*
X96392904Y-103322380D01*
X94043666Y-96607380D02*
X94377000Y-97607380D01*
X94710333Y-96607380D01*
X95615095Y-97512142D02*
X95567476Y-97559761D01*
X95424619Y-97607380D01*
X95329380Y-97607380D01*
X95186523Y-97559761D01*
X95091285Y-97464523D01*
X95043666Y-97369285D01*
X94996047Y-97178809D01*
X94996047Y-97035952D01*
X95043666Y-96845476D01*
X95091285Y-96750238D01*
X95186523Y-96655000D01*
X95329380Y-96607380D01*
X95424619Y-96607380D01*
X95567476Y-96655000D01*
X95615095Y-96702619D01*
X96615095Y-97512142D02*
X96567476Y-97559761D01*
X96424619Y-97607380D01*
X96329380Y-97607380D01*
X96186523Y-97559761D01*
X96091285Y-97464523D01*
X96043666Y-97369285D01*
X95996047Y-97178809D01*
X95996047Y-97035952D01*
X96043666Y-96845476D01*
X96091285Y-96750238D01*
X96186523Y-96655000D01*
X96329380Y-96607380D01*
X96424619Y-96607380D01*
X96567476Y-96655000D01*
X96615095Y-96702619D01*
X122388333Y-98623380D02*
X122055000Y-98147190D01*
X121816904Y-98623380D02*
X121816904Y-97623380D01*
X122197857Y-97623380D01*
X122293095Y-97671000D01*
X122340714Y-97718619D01*
X122388333Y-97813857D01*
X122388333Y-97956714D01*
X122340714Y-98051952D01*
X122293095Y-98099571D01*
X122197857Y-98147190D01*
X121816904Y-98147190D01*
X123340714Y-98623380D02*
X122769285Y-98623380D01*
X123055000Y-98623380D02*
X123055000Y-97623380D01*
X122959761Y-97766238D01*
X122864523Y-97861476D01*
X122769285Y-97909095D01*
X120769285Y-99909380D02*
X121388333Y-99909380D01*
X121055000Y-100290333D01*
X121197857Y-100290333D01*
X121293095Y-100337952D01*
X121340714Y-100385571D01*
X121388333Y-100480809D01*
X121388333Y-100718904D01*
X121340714Y-100814142D01*
X121293095Y-100861761D01*
X121197857Y-100909380D01*
X120912142Y-100909380D01*
X120816904Y-100861761D01*
X120769285Y-100814142D01*
X121816904Y-100909380D02*
X121816904Y-99909380D01*
X122150238Y-100623666D01*
X122483571Y-99909380D01*
X122483571Y-100909380D01*
X123340714Y-100861761D02*
X123245476Y-100909380D01*
X123055000Y-100909380D01*
X122959761Y-100861761D01*
X122912142Y-100766523D01*
X122912142Y-100385571D01*
X122959761Y-100290333D01*
X123055000Y-100242714D01*
X123245476Y-100242714D01*
X123340714Y-100290333D01*
X123388333Y-100385571D01*
X123388333Y-100480809D01*
X122912142Y-100576047D01*
X124245476Y-100242714D02*
X124245476Y-101052238D01*
X124197857Y-101147476D01*
X124150238Y-101195095D01*
X124055000Y-101242714D01*
X123912142Y-101242714D01*
X123816904Y-101195095D01*
X124245476Y-100861761D02*
X124150238Y-100909380D01*
X123959761Y-100909380D01*
X123864523Y-100861761D01*
X123816904Y-100814142D01*
X123769285Y-100718904D01*
X123769285Y-100433190D01*
X123816904Y-100337952D01*
X123864523Y-100290333D01*
X123959761Y-100242714D01*
X124150238Y-100242714D01*
X124245476Y-100290333D01*
X122514101Y-99274380D02*
X122514101Y-99512476D01*
X122276005Y-99417238D02*
X122514101Y-99512476D01*
X122752196Y-99417238D01*
X122371243Y-99702952D02*
X122514101Y-99512476D01*
X122656958Y-99702952D01*
X139324535Y-98496380D02*
X138991202Y-98020190D01*
X138753106Y-98496380D02*
X138753106Y-97496380D01*
X139134059Y-97496380D01*
X139229297Y-97544000D01*
X139276916Y-97591619D01*
X139324535Y-97686857D01*
X139324535Y-97829714D01*
X139276916Y-97924952D01*
X139229297Y-97972571D01*
X139134059Y-98020190D01*
X138753106Y-98020190D01*
X139705487Y-97591619D02*
X139753106Y-97544000D01*
X139848344Y-97496380D01*
X140086440Y-97496380D01*
X140181678Y-97544000D01*
X140229297Y-97591619D01*
X140276916Y-97686857D01*
X140276916Y-97782095D01*
X140229297Y-97924952D01*
X139657868Y-98496380D01*
X140276916Y-98496380D01*
X138215904Y-100639619D02*
X138263523Y-100592000D01*
X138358761Y-100544380D01*
X138596857Y-100544380D01*
X138692095Y-100592000D01*
X138739714Y-100639619D01*
X138787333Y-100734857D01*
X138787333Y-100830095D01*
X138739714Y-100972952D01*
X138168285Y-101544380D01*
X138787333Y-101544380D01*
X139215904Y-101544380D02*
X139215904Y-100544380D01*
X139549238Y-101258666D01*
X139882571Y-100544380D01*
X139882571Y-101544380D01*
X140739714Y-101496761D02*
X140644476Y-101544380D01*
X140454000Y-101544380D01*
X140358761Y-101496761D01*
X140311142Y-101401523D01*
X140311142Y-101020571D01*
X140358761Y-100925333D01*
X140454000Y-100877714D01*
X140644476Y-100877714D01*
X140739714Y-100925333D01*
X140787333Y-101020571D01*
X140787333Y-101115809D01*
X140311142Y-101211047D01*
X141644476Y-100877714D02*
X141644476Y-101687238D01*
X141596857Y-101782476D01*
X141549238Y-101830095D01*
X141454000Y-101877714D01*
X141311142Y-101877714D01*
X141215904Y-101830095D01*
X141644476Y-101496761D02*
X141549238Y-101544380D01*
X141358761Y-101544380D01*
X141263523Y-101496761D01*
X141215904Y-101449142D01*
X141168285Y-101353904D01*
X141168285Y-101068190D01*
X141215904Y-100972952D01*
X141263523Y-100925333D01*
X141358761Y-100877714D01*
X141549238Y-100877714D01*
X141644476Y-100925333D01*
X139786101Y-99274380D02*
X139786101Y-99512476D01*
X139548005Y-99417238D02*
X139786101Y-99512476D01*
X140024196Y-99417238D01*
X139643243Y-99702952D02*
X139786101Y-99512476D01*
X139928958Y-99702952D01*
X156846232Y-98750380D02*
X156512899Y-98274190D01*
X156274803Y-98750380D02*
X156274803Y-97750380D01*
X156655756Y-97750380D01*
X156750994Y-97798000D01*
X156798613Y-97845619D01*
X156846232Y-97940857D01*
X156846232Y-98083714D01*
X156798613Y-98178952D01*
X156750994Y-98226571D01*
X156655756Y-98274190D01*
X156274803Y-98274190D01*
X157179565Y-97750380D02*
X157798613Y-97750380D01*
X157465279Y-98131333D01*
X157608137Y-98131333D01*
X157703375Y-98178952D01*
X157750994Y-98226571D01*
X157798613Y-98321809D01*
X157798613Y-98559904D01*
X157750994Y-98655142D01*
X157703375Y-98702761D01*
X157608137Y-98750380D01*
X157322422Y-98750380D01*
X157227184Y-98702761D01*
X157179565Y-98655142D01*
X155846232Y-101417380D02*
X155274803Y-101417380D01*
X155560518Y-101417380D02*
X155560518Y-100417380D01*
X155465279Y-100560238D01*
X155370041Y-100655476D01*
X155274803Y-100703095D01*
X156274803Y-101417380D02*
X156274803Y-100417380D01*
X156608137Y-101131666D01*
X156941470Y-100417380D01*
X156941470Y-101417380D01*
X157798613Y-101369761D02*
X157703375Y-101417380D01*
X157512899Y-101417380D01*
X157417660Y-101369761D01*
X157370041Y-101274523D01*
X157370041Y-100893571D01*
X157417660Y-100798333D01*
X157512899Y-100750714D01*
X157703375Y-100750714D01*
X157798613Y-100798333D01*
X157846232Y-100893571D01*
X157846232Y-100988809D01*
X157370041Y-101084047D01*
X158703375Y-100750714D02*
X158703375Y-101560238D01*
X158655756Y-101655476D01*
X158608137Y-101703095D01*
X158512899Y-101750714D01*
X158370041Y-101750714D01*
X158274803Y-101703095D01*
X158703375Y-101369761D02*
X158608137Y-101417380D01*
X158417660Y-101417380D01*
X158322422Y-101369761D01*
X158274803Y-101322142D01*
X158227184Y-101226904D01*
X158227184Y-100941190D01*
X158274803Y-100845952D01*
X158322422Y-100798333D01*
X158417660Y-100750714D01*
X158608137Y-100750714D01*
X158703375Y-100798333D01*
X157099000Y-99274380D02*
X157099000Y-99512476D01*
X156860904Y-99417238D02*
X157099000Y-99512476D01*
X157337095Y-99417238D01*
X156956142Y-99702952D02*
X157099000Y-99512476D01*
X157241857Y-99702952D01*
X173315333Y-98496380D02*
X172982000Y-98020190D01*
X172743904Y-98496380D02*
X172743904Y-97496380D01*
X173124857Y-97496380D01*
X173220095Y-97544000D01*
X173267714Y-97591619D01*
X173315333Y-97686857D01*
X173315333Y-97829714D01*
X173267714Y-97924952D01*
X173220095Y-97972571D01*
X173124857Y-98020190D01*
X172743904Y-98020190D01*
X174172476Y-97829714D02*
X174172476Y-98496380D01*
X173934380Y-97448761D02*
X173696285Y-98163047D01*
X174315333Y-98163047D01*
X172172523Y-100163380D02*
X172839190Y-100163380D01*
X172410619Y-101163380D01*
X173696333Y-100163380D02*
X173220142Y-100163380D01*
X173172523Y-100639571D01*
X173220142Y-100591952D01*
X173315380Y-100544333D01*
X173553476Y-100544333D01*
X173648714Y-100591952D01*
X173696333Y-100639571D01*
X173743952Y-100734809D01*
X173743952Y-100972904D01*
X173696333Y-101068142D01*
X173648714Y-101115761D01*
X173553476Y-101163380D01*
X173315380Y-101163380D01*
X173220142Y-101115761D01*
X173172523Y-101068142D01*
X174363000Y-100163380D02*
X174458238Y-100163380D01*
X174553476Y-100211000D01*
X174601095Y-100258619D01*
X174648714Y-100353857D01*
X174696333Y-100544333D01*
X174696333Y-100782428D01*
X174648714Y-100972904D01*
X174601095Y-101068142D01*
X174553476Y-101115761D01*
X174458238Y-101163380D01*
X174363000Y-101163380D01*
X174267761Y-101115761D01*
X174220142Y-101068142D01*
X174172523Y-100972904D01*
X174124904Y-100782428D01*
X174124904Y-100544333D01*
X174172523Y-100353857D01*
X174220142Y-100258619D01*
X174267761Y-100211000D01*
X174363000Y-100163380D01*
X175124904Y-101163380D02*
X175124904Y-100163380D01*
X175220142Y-100782428D02*
X175505857Y-101163380D01*
X175505857Y-100496714D02*
X175124904Y-100877666D01*
X173824900Y-99274380D02*
X173824900Y-99512476D01*
X173586804Y-99417238D02*
X173824900Y-99512476D01*
X174062995Y-99417238D01*
X173682042Y-99702952D02*
X173824900Y-99512476D01*
X173967757Y-99702952D01*
X103650607Y-98242380D02*
X103317274Y-97766190D01*
X103079178Y-98242380D02*
X103079178Y-97242380D01*
X103460131Y-97242380D01*
X103555369Y-97290000D01*
X103602988Y-97337619D01*
X103650607Y-97432857D01*
X103650607Y-97575714D01*
X103602988Y-97670952D01*
X103555369Y-97718571D01*
X103460131Y-97766190D01*
X103079178Y-97766190D01*
X103936321Y-97242380D02*
X104507750Y-97242380D01*
X104222036Y-98242380D02*
X104222036Y-97242380D01*
X105412512Y-98242380D02*
X105079178Y-97766190D01*
X104841083Y-98242380D02*
X104841083Y-97242380D01*
X105222036Y-97242380D01*
X105317274Y-97290000D01*
X105364893Y-97337619D01*
X105412512Y-97432857D01*
X105412512Y-97575714D01*
X105364893Y-97670952D01*
X105317274Y-97718571D01*
X105222036Y-97766190D01*
X104841083Y-97766190D01*
X105793464Y-97956666D02*
X106269655Y-97956666D01*
X105698226Y-98242380D02*
X106031559Y-97242380D01*
X106364893Y-98242380D01*
X107269655Y-98147142D02*
X107222036Y-98194761D01*
X107079178Y-98242380D01*
X106983940Y-98242380D01*
X106841083Y-98194761D01*
X106745845Y-98099523D01*
X106698226Y-98004285D01*
X106650607Y-97813809D01*
X106650607Y-97670952D01*
X106698226Y-97480476D01*
X106745845Y-97385238D01*
X106841083Y-97290000D01*
X106983940Y-97242380D01*
X107079178Y-97242380D01*
X107222036Y-97290000D01*
X107269655Y-97337619D01*
X107698226Y-98242380D02*
X107698226Y-97242380D01*
X108269655Y-98242380D02*
X107841083Y-97670952D01*
X108269655Y-97242380D02*
X107698226Y-97813809D01*
X109222036Y-98242380D02*
X108650607Y-98242380D01*
X108936321Y-98242380D02*
X108936321Y-97242380D01*
X108841083Y-97385238D01*
X108745845Y-97480476D01*
X108650607Y-97528095D01*
X104005285Y-99909380D02*
X104624333Y-99909380D01*
X104291000Y-100290333D01*
X104433857Y-100290333D01*
X104529095Y-100337952D01*
X104576714Y-100385571D01*
X104624333Y-100480809D01*
X104624333Y-100718904D01*
X104576714Y-100814142D01*
X104529095Y-100861761D01*
X104433857Y-100909380D01*
X104148142Y-100909380D01*
X104052904Y-100861761D01*
X104005285Y-100814142D01*
X105052904Y-100909380D02*
X105052904Y-99909380D01*
X105386238Y-100623666D01*
X105719571Y-99909380D01*
X105719571Y-100909380D01*
X106576714Y-100861761D02*
X106481476Y-100909380D01*
X106291000Y-100909380D01*
X106195761Y-100861761D01*
X106148142Y-100766523D01*
X106148142Y-100385571D01*
X106195761Y-100290333D01*
X106291000Y-100242714D01*
X106481476Y-100242714D01*
X106576714Y-100290333D01*
X106624333Y-100385571D01*
X106624333Y-100480809D01*
X106148142Y-100576047D01*
X107481476Y-100242714D02*
X107481476Y-101052238D01*
X107433857Y-101147476D01*
X107386238Y-101195095D01*
X107291000Y-101242714D01*
X107148142Y-101242714D01*
X107052904Y-101195095D01*
X107481476Y-100861761D02*
X107386238Y-100909380D01*
X107195761Y-100909380D01*
X107100523Y-100861761D01*
X107052904Y-100814142D01*
X107005285Y-100718904D01*
X107005285Y-100433190D01*
X107052904Y-100337952D01*
X107100523Y-100290333D01*
X107195761Y-100242714D01*
X107386238Y-100242714D01*
X107481476Y-100290333D01*
X106085899Y-99274380D02*
X106085899Y-99512476D01*
X105847803Y-99417238D02*
X106085899Y-99512476D01*
X106323994Y-99417238D01*
X105943041Y-99702952D02*
X106085899Y-99512476D01*
X106228756Y-99702952D01*
M02*
