G04 #@! TF.GenerationSoftware,KiCad,Pcbnew,5.1.2*
G04 #@! TF.CreationDate,2019-08-19T17:44:21-07:00*
G04 #@! TF.ProjectId,Prototype-PCB,50726f74-6f74-4797-9065-2d5043422e6b,rev?*
G04 #@! TF.SameCoordinates,Original*
G04 #@! TF.FileFunction,Copper,L2,Bot*
G04 #@! TF.FilePolarity,Positive*
%FSLAX46Y46*%
G04 Gerber Fmt 4.6, Leading zero omitted, Abs format (unit mm)*
G04 Created by KiCad (PCBNEW 5.1.2) date 2019-08-19 17:44:21*
%MOMM*%
%LPD*%
G04 APERTURE LIST*
%ADD10C,2.499360*%
%ADD11R,1.000000X1.400000*%
%ADD12C,0.508000*%
%ADD13C,0.250000*%
G04 APERTURE END LIST*
D10*
X95250000Y-105664000D03*
X95250000Y-99822000D03*
D11*
X119055000Y-99822000D03*
X126055000Y-99822000D03*
X143200000Y-99695000D03*
X136200000Y-99695000D03*
X153726000Y-99695000D03*
X160726000Y-99695000D03*
X177109000Y-99695000D03*
X170109000Y-99695000D03*
D12*
X118999000Y-104394000D03*
X126111000Y-104394000D03*
X136144000Y-104394000D03*
X143256000Y-104521000D03*
X153797000Y-104394000D03*
X160782000Y-104394000D03*
X170180000Y-104394000D03*
X177038000Y-104521000D03*
D13*
X119055000Y-99822000D02*
X119055000Y-100022000D01*
X119055000Y-100022000D02*
X119126000Y-100093000D01*
X119055000Y-99822000D02*
X119055000Y-104338000D01*
X119055000Y-104338000D02*
X118999000Y-104394000D01*
X126055000Y-99822000D02*
X126055000Y-104338000D01*
X126055000Y-104338000D02*
X126111000Y-104394000D01*
X136200000Y-99695000D02*
X136200000Y-104338000D01*
X136200000Y-104338000D02*
X136144000Y-104394000D01*
X143200000Y-99695000D02*
X143200000Y-104465000D01*
X143200000Y-104465000D02*
X143256000Y-104521000D01*
X153726000Y-99695000D02*
X153726000Y-104323000D01*
X153726000Y-104323000D02*
X153797000Y-104394000D01*
X160726000Y-99695000D02*
X160726000Y-104338000D01*
X160726000Y-104338000D02*
X160782000Y-104394000D01*
X170109000Y-99695000D02*
X170109000Y-104323000D01*
X170109000Y-104323000D02*
X170180000Y-104394000D01*
X177109000Y-99695000D02*
X177109000Y-104450000D01*
X177109000Y-104450000D02*
X177038000Y-104521000D01*
M02*
