G04 #@! TF.GenerationSoftware,KiCad,Pcbnew,5.1.4*
G04 #@! TF.CreationDate,2019-11-17T15:22:02-07:00*
G04 #@! TF.ProjectId,Prototype-PCB,50726f74-6f74-4797-9065-2d5043422e6b,rev?*
G04 #@! TF.SameCoordinates,Original*
G04 #@! TF.FileFunction,Other,User*
%FSLAX46Y46*%
G04 Gerber Fmt 4.6, Leading zero omitted, Abs format (unit mm)*
G04 Created by KiCad (PCBNEW 5.1.4) date 2019-11-17 15:22:02*
%MOMM*%
%LPD*%
G04 APERTURE LIST*
%ADD10C,0.050000*%
%ADD11C,0.120000*%
G04 APERTURE END LIST*
D10*
X93500000Y-104295000D02*
X97000000Y-104295000D01*
X93500000Y-104295000D02*
X93500000Y-107795000D01*
X97000000Y-107795000D02*
X97000000Y-104295000D01*
X97000000Y-107795000D02*
X93500000Y-107795000D01*
X97000000Y-102080000D02*
X93500000Y-102080000D01*
X97000000Y-102080000D02*
X97000000Y-98580000D01*
X93500000Y-98580000D02*
X93500000Y-102080000D01*
X93500000Y-98580000D02*
X97000000Y-98580000D01*
X113337500Y-103020000D02*
X118237500Y-103020000D01*
X113337500Y-105260000D02*
X113337500Y-103020000D01*
X118237500Y-105260000D02*
X113337500Y-105260000D01*
X118237500Y-103020000D02*
X118237500Y-105260000D01*
X133477500Y-103020000D02*
X133477500Y-105260000D01*
X133477500Y-105260000D02*
X128577500Y-105260000D01*
X128577500Y-105260000D02*
X128577500Y-103020000D01*
X128577500Y-103020000D02*
X133477500Y-103020000D01*
X143182500Y-103020000D02*
X148082500Y-103020000D01*
X143182500Y-105260000D02*
X143182500Y-103020000D01*
X148082500Y-105260000D02*
X143182500Y-105260000D01*
X148082500Y-103020000D02*
X148082500Y-105260000D01*
X163957500Y-103020000D02*
X163957500Y-105260000D01*
X163957500Y-105260000D02*
X159057500Y-105260000D01*
X159057500Y-105260000D02*
X159057500Y-103020000D01*
X159057500Y-103020000D02*
X163957500Y-103020000D01*
X106172500Y-99210000D02*
X106172500Y-101450000D01*
X106172500Y-101450000D02*
X101272500Y-101450000D01*
X101272500Y-101450000D02*
X101272500Y-99210000D01*
X101272500Y-99210000D02*
X106172500Y-99210000D01*
D11*
X118872000Y-102489000D02*
X118872000Y-102362000D01*
X112268000Y-102489000D02*
X118872000Y-102489000D01*
X112268000Y-102362000D02*
X112268000Y-102489000D01*
X112268000Y-98171000D02*
X112268000Y-98298000D01*
X118872000Y-98171000D02*
X112268000Y-98171000D01*
X118872000Y-98298000D02*
X118872000Y-98171000D01*
X118872000Y-101219000D02*
X118872000Y-102362000D01*
X119761000Y-101219000D02*
X118872000Y-101219000D01*
X119761000Y-101092000D02*
X119761000Y-101219000D01*
X118872000Y-99441000D02*
X118872000Y-98298000D01*
X119761000Y-99441000D02*
X118872000Y-99441000D01*
X119761000Y-99568000D02*
X119761000Y-99441000D01*
X112268000Y-99441000D02*
X112268000Y-98298000D01*
X111379000Y-99441000D02*
X112268000Y-99441000D01*
X111379000Y-101219000D02*
X111379000Y-99441000D01*
X112268000Y-101219000D02*
X111379000Y-101219000D01*
X112268000Y-102362000D02*
X112268000Y-101219000D01*
X119761000Y-99568000D02*
X119761000Y-101092000D01*
X135001000Y-99568000D02*
X135001000Y-101092000D01*
X127508000Y-102362000D02*
X127508000Y-101219000D01*
X127508000Y-101219000D02*
X126619000Y-101219000D01*
X126619000Y-101219000D02*
X126619000Y-99441000D01*
X126619000Y-99441000D02*
X127508000Y-99441000D01*
X127508000Y-99441000D02*
X127508000Y-98298000D01*
X135001000Y-99568000D02*
X135001000Y-99441000D01*
X135001000Y-99441000D02*
X134112000Y-99441000D01*
X134112000Y-99441000D02*
X134112000Y-98298000D01*
X135001000Y-101092000D02*
X135001000Y-101219000D01*
X135001000Y-101219000D02*
X134112000Y-101219000D01*
X134112000Y-101219000D02*
X134112000Y-102362000D01*
X134112000Y-98298000D02*
X134112000Y-98171000D01*
X134112000Y-98171000D02*
X127508000Y-98171000D01*
X127508000Y-98171000D02*
X127508000Y-98298000D01*
X127508000Y-102362000D02*
X127508000Y-102489000D01*
X127508000Y-102489000D02*
X134112000Y-102489000D01*
X134112000Y-102489000D02*
X134112000Y-102362000D01*
X149042000Y-102489000D02*
X149042000Y-102362000D01*
X142438000Y-102489000D02*
X149042000Y-102489000D01*
X142438000Y-102362000D02*
X142438000Y-102489000D01*
X142438000Y-98171000D02*
X142438000Y-98298000D01*
X149042000Y-98171000D02*
X142438000Y-98171000D01*
X149042000Y-98298000D02*
X149042000Y-98171000D01*
X149042000Y-101219000D02*
X149042000Y-102362000D01*
X149931000Y-101219000D02*
X149042000Y-101219000D01*
X149931000Y-101092000D02*
X149931000Y-101219000D01*
X149042000Y-99441000D02*
X149042000Y-98298000D01*
X149931000Y-99441000D02*
X149042000Y-99441000D01*
X149931000Y-99568000D02*
X149931000Y-99441000D01*
X142438000Y-99441000D02*
X142438000Y-98298000D01*
X141549000Y-99441000D02*
X142438000Y-99441000D01*
X141549000Y-101219000D02*
X141549000Y-99441000D01*
X142438000Y-101219000D02*
X141549000Y-101219000D01*
X142438000Y-102362000D02*
X142438000Y-101219000D01*
X149931000Y-99568000D02*
X149931000Y-101092000D01*
X165791000Y-99568000D02*
X165791000Y-101092000D01*
X158298000Y-102362000D02*
X158298000Y-101219000D01*
X158298000Y-101219000D02*
X157409000Y-101219000D01*
X157409000Y-101219000D02*
X157409000Y-99441000D01*
X157409000Y-99441000D02*
X158298000Y-99441000D01*
X158298000Y-99441000D02*
X158298000Y-98298000D01*
X165791000Y-99568000D02*
X165791000Y-99441000D01*
X165791000Y-99441000D02*
X164902000Y-99441000D01*
X164902000Y-99441000D02*
X164902000Y-98298000D01*
X165791000Y-101092000D02*
X165791000Y-101219000D01*
X165791000Y-101219000D02*
X164902000Y-101219000D01*
X164902000Y-101219000D02*
X164902000Y-102362000D01*
X164902000Y-98298000D02*
X164902000Y-98171000D01*
X164902000Y-98171000D02*
X158298000Y-98171000D01*
X158298000Y-98171000D02*
X158298000Y-98298000D01*
X158298000Y-102362000D02*
X158298000Y-102489000D01*
X158298000Y-102489000D02*
X164902000Y-102489000D01*
X164902000Y-102489000D02*
X164902000Y-102362000D01*
M02*
