G04 #@! TF.GenerationSoftware,KiCad,Pcbnew,5.1.2*
G04 #@! TF.CreationDate,2019-08-19T17:44:21-07:00*
G04 #@! TF.ProjectId,Prototype-PCB,50726f74-6f74-4797-9065-2d5043422e6b,rev?*
G04 #@! TF.SameCoordinates,Original*
G04 #@! TF.FileFunction,Copper,L1,Top*
G04 #@! TF.FilePolarity,Positive*
%FSLAX46Y46*%
G04 Gerber Fmt 4.6, Leading zero omitted, Abs format (unit mm)*
G04 Created by KiCad (PCBNEW 5.1.2) date 2019-08-19 17:44:21*
%MOMM*%
%LPD*%
G04 APERTURE LIST*
%ADD10C,2.499360*%
%ADD11R,3.296399X6.883400*%
%ADD12R,3.302000X6.883400*%
%ADD13C,0.508000*%
%ADD14C,0.250000*%
G04 APERTURE END LIST*
D10*
X95250000Y-105664000D03*
X95250000Y-99822000D03*
D11*
X117221000Y-99822000D03*
X127807202Y-99822000D03*
X145079202Y-99822000D03*
X134493000Y-99822000D03*
X162392101Y-99822000D03*
X151805899Y-99822000D03*
D12*
X179120800Y-99822000D03*
X168529000Y-99822000D03*
D11*
X111379000Y-99822000D03*
X100792798Y-99822000D03*
D13*
X118999000Y-104394000D03*
X126111000Y-104394000D03*
X136144000Y-104394000D03*
X143256000Y-104521000D03*
X153797000Y-104394000D03*
X160782000Y-104394000D03*
X170180000Y-104394000D03*
X177038000Y-104521000D03*
D14*
X111379000Y-99822000D02*
X117221000Y-99822000D01*
X111379000Y-101615500D02*
X111379000Y-99822000D01*
X117221000Y-102616000D02*
X117221000Y-99822000D01*
X118999000Y-104394000D02*
X117221000Y-102616000D01*
X129705401Y-99822000D02*
X134493000Y-99822000D01*
X127807202Y-99822000D02*
X129705401Y-99822000D01*
X126926902Y-104394000D02*
X127807202Y-103513700D01*
X127807202Y-103513700D02*
X127807202Y-99822000D01*
X126111000Y-104394000D02*
X126926902Y-104394000D01*
X134493000Y-102743000D02*
X134493000Y-99822000D01*
X136144000Y-104394000D02*
X134493000Y-102743000D01*
X145079202Y-99822000D02*
X151805899Y-99822000D01*
X145079202Y-102697798D02*
X145079202Y-99822000D01*
X143256000Y-104521000D02*
X145079202Y-102697798D01*
X151805899Y-102402899D02*
X151805899Y-99822000D01*
X153797000Y-104394000D02*
X151805899Y-102402899D01*
X164290300Y-99822000D02*
X168529000Y-99822000D01*
X162392101Y-99822000D02*
X164290300Y-99822000D01*
X162392101Y-102783899D02*
X162392101Y-99822000D01*
X160782000Y-104394000D02*
X162392101Y-102783899D01*
X168529000Y-102743000D02*
X168529000Y-99822000D01*
X170180000Y-104394000D02*
X168529000Y-102743000D01*
X97017314Y-105664000D02*
X95250000Y-105664000D01*
X175069500Y-105664000D02*
X97017314Y-105664000D01*
X179120800Y-101612700D02*
X175069500Y-105664000D01*
X179120800Y-99822000D02*
X179120800Y-101612700D01*
X179120800Y-102438200D02*
X179120800Y-99822000D01*
X177038000Y-104521000D02*
X179120800Y-102438200D01*
X95250000Y-99822000D02*
X100792798Y-99822000D01*
M02*
